<?xml version="1.0" encoding="iso-8859-1"?>
<!-- Generator: Adobe Illustrator 19.0.0, SVG Export Plug-In . SVG Version: 6.00 Build 0)  -->
<svg version="1.1" id="Layer_1" xmlns="http://www.w3.org/2000/svg" xmlns:xlink="http://www.w3.org/1999/xlink" x="0px" y="0px"
	 viewBox="0 0 512 512" style="enable-background:new 0 0 512 512;" xml:space="preserve">
<g>
	<polygon style="fill:#9777A8;" points="0,512 512,512 512,0 0,0 	"/>
	<g>
		<path style="fill:#FFFFFF;" d="M397.241,476.69c-43.811,0-79.448-35.646-79.448-79.448c0-4.873,3.946-8.828,8.828-8.828
			c4.882,0,8.828,3.955,8.828,8.828c0,34.074,27.727,61.793,61.793,61.793s61.793-27.719,61.793-61.793
			s-27.727-61.793-61.793-61.793c-43.811,0-79.448-35.646-79.448-79.448s35.637-79.448,79.448-79.448S476.69,212.198,476.69,256
			c0,4.873-3.946,8.828-8.828,8.828c-4.882,0-8.828-3.955-8.828-8.828c0-34.074-27.727-61.793-61.793-61.793
			S335.448,221.926,335.448,256s27.727,61.793,61.793,61.793c43.811,0,79.448,35.646,79.448,79.448S441.053,476.69,397.241,476.69"
			/>
		<path style="fill:#FFFFFF;" d="M211.862,476.69c-43.811,0-79.448-35.646-79.448-79.448c0-4.873,3.946-8.828,8.828-8.828
			s8.828,3.955,8.828,8.828c0,34.074,27.727,61.793,61.793,61.793s61.793-27.719,61.793-61.793V185.379
			c0-4.873,3.946-8.828,8.828-8.828s8.828,3.955,8.828,8.828v211.862C291.31,441.044,255.673,476.69,211.862,476.69"/>
	</g>
</g>
<g>
</g>
<g>
</g>
<g>
</g>
<g>
</g>
<g>
</g>
<g>
</g>
<g>
</g>
<g>
</g>
<g>
</g>
<g>
</g>
<g>
</g>
<g>
</g>
<g>
</g>
<g>
</g>
<g>
</g>
</svg>
